<?xml version="1.0" encoding="UTF-8" standalone="no"?>
<!DOCTYPE svg PUBLIC "-//W3C//DTD SVG 1.1//EN"
 "http://www.w3.org/Graphics/SVG/1.1/DTD/svg11.dtd">
<!-- Generated by graphviz version 2.43.0 (0)
 -->
<!-- Title: graphname Pages: 1 -->
<svg width="1440pt" height="1153pt"
 viewBox="0.00 0.00 1440.00 1153.48" xmlns="http://www.w3.org/2000/svg" xmlns:xlink="http://www.w3.org/1999/xlink">
<g id="graph0" class="graph" transform="scale(1 1) rotate(0) translate(4 1149.48)">
<title>graphname</title>
<polygon fill="white" stroke="transparent" points="-4,4 -4,-1149.48 1436,-1149.48 1436,4 -4,4"/>
<g id="clust1" class="cluster">
<title>cluster_operator</title>
<polygon fill="none" stroke="red" points="8,-703.74 8,-1137.48 398,-1137.48 398,-703.74 8,-703.74"/>
<text text-anchor="middle" x="203" y="-1122.28" font-family="sans" font-size="14.00" fill="red">Operator</text>
</g>
<g id="clust2" class="cluster">
<title>cluster_subject</title>
<polygon fill="none" stroke="#888822" points="331,-8 331,-87 1062,-87 1062,-8 331,-8"/>
<text text-anchor="middle" x="696.5" y="-71.8" font-family="sans" font-size="14.00" fill="#888822">Subject</text>
</g>
<g id="clust3" class="cluster">
<title>cluster_experimenter</title>
<polygon fill="none" stroke="#22aa22" points="89,-8 89,-87 279,-87 279,-8 89,-8"/>
<text text-anchor="middle" x="184" y="-71.8" font-family="sans" font-size="14.00" fill="#22aa22">Experimenter</text>
</g>
<g id="clust4" class="cluster">
<title>cluster_legend</title>
<polygon fill="none" stroke="#22aa22" points="621,-1051.48 621,-1130.48 960,-1130.48 960,-1051.48 621,-1051.48"/>
<text text-anchor="middle" x="790.5" y="-1115.28" font-family="sans" font-size="14.00">ReproFlow Legend</text>
</g>
<!-- ntp -->
<g id="node1" class="node">
<title>ntp</title>
<polygon fill="#90b0ff" stroke="transparent" points="1432,-936.61 1298,-936.61 1298,-900.61 1432,-900.61 1432,-936.61"/>
<text text-anchor="middle" x="1365" y="-914.91" font-family="sans" font-size="14.00" fill="#f2f2f2"> &#160;&#160;&#160;&#160;&#160;NTP Server &#160;&#160;&#160;&#160;&#160;</text>
</g>
<!-- dat -->
<g id="node4" class="node">
<title>dat</title>
<polygon fill="#90b0ff" stroke="#00ff00" points="985.5,-753.74 722.5,-753.74 722.5,-709.74 985.5,-709.74 985.5,-753.74"/>
<polygon fill="none" stroke="white" points="731,-713.74 731,-749.74 765,-749.74 765,-713.74 731,-713.74"/>
<text text-anchor="start" x="734" y="-728.04" font-family="sans" font-size="14.00" fill="#f2f2f2">USB</text>
<polygon fill="none" stroke="white" points="765,-713.74 765,-749.74 946,-749.74 946,-713.74 765,-713.74"/>
<text text-anchor="start" x="817.5" y="-735.54" font-family="sans" font-size="14.00" fill="#f2f2f2"> ReproIn&#45;er</text>
<text text-anchor="start" x="768" y="-720.54" font-family="sans" font-size="14.00" fill="#f2f2f2">(Meta)data Capture Server</text>
<polygon fill="none" stroke="white" points="946,-713.74 946,-749.74 978,-749.74 978,-713.74 946,-713.74"/>
<text text-anchor="start" x="949" y="-728.04" font-family="sans" font-size="14.00" fill="#f2f2f2">ETH</text>
</g>
<!-- ntp&#45;&gt;dat -->
<g id="edge22" class="edge">
<title>ntp&#45;&gt;dat:eth</title>
<path fill="none" stroke="#5588ff" d="M1345.69,-900.46C1293.05,-855.48 1140.76,-737.21 989.43,-731.92"/>
<polygon fill="#5588ff" stroke="#5588ff" points="989.06,-728.42 979,-731.74 988.94,-735.42 989.06,-728.42"/>
<text text-anchor="middle" x="1273.5" y="-819.04" font-family="sans" font-size="14.00" fill="#5588ff">NTP</text>
</g>
<!-- per -->
<g id="node16" class="node">
<title>per</title>
<polygon fill="white" stroke="transparent" points="1209.5,-389.74 1028.5,-389.74 1028.5,-339.74 1209.5,-339.74 1209.5,-389.74"/>
<polygon fill="#f5f5f5" stroke="transparent" points="1036.5,-343.74 1036.5,-385.74 1201.5,-385.74 1201.5,-343.74 1036.5,-343.74"/>
<polygon fill="none" stroke="#dddddd" points="1037,-364.74 1037,-385.74 1071,-385.74 1071,-364.74 1037,-364.74"/>
<text text-anchor="start" x="1040" y="-371.54" font-family="sans" font-size="14.00">USB</text>
<polygon fill="none" stroke="#dddddd" points="1071,-343.74 1071,-385.74 1168,-385.74 1168,-343.74 1071,-343.74"/>
<text text-anchor="start" x="1074" y="-368.54" font-family="sans" font-size="14.00">Experimenter</text>
<text text-anchor="start" x="1096.5" y="-353.54" font-family="sans" font-size="14.00">Laptop</text>
<polygon fill="none" stroke="#dddddd" points="1168,-364.74 1168,-385.74 1202,-385.74 1202,-364.74 1168,-364.74"/>
<text text-anchor="start" x="1172" y="-371.54" font-family="sans" font-size="14.00">ETH</text>
<polygon fill="none" stroke="#dddddd" points="1037,-343.74 1037,-364.74 1071,-364.74 1071,-343.74 1037,-343.74"/>
<text text-anchor="start" x="1040" y="-350.54" font-family="sans" font-size="14.00">VGA</text>
<polygon fill="none" stroke="#dddddd" points="1168,-343.74 1168,-364.74 1202,-364.74 1202,-343.74 1168,-343.74"/>
<text text-anchor="start" x="1171" y="-350.54" font-family="sans" font-size="14.00">AUX</text>
</g>
<!-- ntp&#45;&gt;per -->
<g id="edge26" class="edge">
<title>ntp&#45;&gt;per:eth</title>
<path fill="none" stroke="#5588ff" stroke-dasharray="1,5" d="M1367.52,-900.5C1379.97,-809.79 1426.18,-388.76 1213.01,-376.03"/>
<polygon fill="#5588ff" stroke="#5588ff" points="1213.1,-372.54 1203,-375.74 1212.89,-379.53 1213.1,-372.54"/>
<text text-anchor="middle" x="1391.5" y="-644.54" font-family="sans" font-size="14.00" fill="#5588ff">NTP</text>
</g>
<!-- mag1 -->
<g id="node2" class="node">
<title>mag1</title>
<polygon fill="white" stroke="#00ff00" points="487.5,-386.74 196.5,-386.74 196.5,-342.74 487.5,-342.74 487.5,-386.74"/>
<polygon fill="#f5f5f5" stroke="transparent" points="204.5,-346.74 204.5,-382.74 479.5,-382.74 479.5,-346.74 204.5,-346.74"/>
<polygon fill="none" stroke="white" points="205,-346.74 205,-382.74 239,-382.74 239,-346.74 205,-346.74"/>
<text text-anchor="start" x="208" y="-361.04" font-family="sans" font-size="14.00">USB</text>
<polygon fill="none" stroke="white" points="239,-346.74 239,-382.74 417,-382.74 417,-346.74 239,-346.74"/>
<text text-anchor="start" x="242" y="-368.54" font-family="sans" font-size="14.00">Audio/Video Converter #1</text>
<text text-anchor="start" x="278" y="-353.54" font-family="sans" font-size="14.00">(for ReproStim)</text>
<polygon fill="none" stroke="white" points="417,-346.74 417,-382.74 446,-382.74 446,-346.74 417,-346.74"/>
<text text-anchor="start" x="420" y="-361.04" font-family="sans" font-size="14.00">DVI</text>
<polygon fill="none" stroke="white" points="446,-346.74 446,-382.74 480,-382.74 480,-346.74 446,-346.74"/>
<text text-anchor="start" x="449" y="-361.04" font-family="sans" font-size="14.00">AUX</text>
</g>
<!-- mag1&#45;&gt;dat -->
<g id="edge23" class="edge">
<title>mag1:usb&#45;&gt;dat:usb</title>
<path fill="none" stroke="#7f7f7f" d="M204,-364.74C-77.72,-364.74 432.73,-723.19 719.88,-731.59"/>
<polygon fill="#7f7f7f" stroke="#7f7f7f" points="719.95,-735.09 730,-731.74 720.05,-728.09 719.95,-735.09"/>
</g>
<!-- eve -->
<g id="node3" class="node">
<title>eve</title>
<polygon fill="white" stroke="#00ff00" points="763.5,-386.74 606.5,-386.74 606.5,-342.74 763.5,-342.74 763.5,-386.74"/>
<polygon fill="#f5f5f5" stroke="transparent" points="614.5,-346.74 614.5,-382.74 755.5,-382.74 755.5,-346.74 614.5,-346.74"/>
<polygon fill="none" stroke="white" points="615,-346.74 615,-382.74 649,-382.74 649,-346.74 615,-346.74"/>
<text text-anchor="start" x="618" y="-361.04" font-family="sans" font-size="14.00">USB</text>
<polygon fill="none" stroke="white" points="649,-346.74 649,-382.74 756,-382.74 756,-346.74 649,-346.74"/>
<text text-anchor="start" x="656.5" y="-368.54" font-family="sans" font-size="14.00"> MicroPython </text>
<text text-anchor="start" x="652" y="-353.54" font-family="sans" font-size="14.00">Event Recorder</text>
</g>
<!-- eve&#45;&gt;dat -->
<g id="edge17" class="edge">
<title>eve:usb&#45;&gt;dat:usb</title>
<path fill="none" stroke="#7f7f7f" d="M614,-364.74C446.44,-364.74 554.3,-716.84 719.55,-731.28"/>
<polygon fill="#7f7f7f" stroke="#7f7f7f" points="719.86,-734.8 730,-731.74 720.16,-727.81 719.86,-734.8"/>
</g>
<!-- bid -->
<g id="node6" class="node">
<title>bid</title>
<polygon fill="#90b0ff" stroke="#00ff00" points="1221,-937.61 1093,-937.61 1093,-899.61 1221,-899.61 1221,-937.61"/>
<text text-anchor="middle" x="1157" y="-922.41" font-family="sans" font-size="14.00" fill="#f2f2f2">ReproIn Server</text>
<text text-anchor="middle" x="1157" y="-907.41" font-family="sans" font-size="14.00" fill="#f2f2f2">(BIDS Converter)</text>
</g>
<!-- dat&#45;&gt;bid -->
<g id="edge20" class="edge">
<title>dat:eth&#45;&gt;bid</title>
<path fill="none" stroke="#5588ff" d="M979,-731.74C981.74,-731.74 1085.06,-841.16 1133.01,-892.09"/>
<polygon fill="#5588ff" stroke="#5588ff" points="1130.53,-894.57 1139.93,-899.45 1135.63,-889.77 1130.53,-894.57"/>
<text text-anchor="middle" x="1103" y="-826.54" font-family="sans" font-size="14.00" fill="#5588ff">events,</text>
<text text-anchor="middle" x="1103" y="-811.54" font-family="sans" font-size="14.00" fill="#5588ff">stimuli</text>
</g>
<!-- rec -->
<g id="node8" class="node">
<title>rec</title>
<polygon fill="white" stroke="transparent" points="1054,-586.74 624,-586.74 624,-542.74 1054,-542.74 1054,-586.74"/>
<polygon fill="#f5f5f5" stroke="transparent" points="632,-546.74 632,-582.74 1046,-582.74 1046,-546.74 632,-546.74"/>
<polygon fill="none" stroke="#dddddd" points="632,-546.74 632,-582.74 798,-582.74 798,-546.74 632,-546.74"/>
<text text-anchor="start" x="651" y="-568.54" font-family="sans" font-size="14.00">Response Collector</text>
<text text-anchor="start" x="635" y="-553.54" font-family="sans" font-size="14.00" fill="#999999">(Current Designs, Birch)</text>
<polygon fill="none" stroke="#dddddd" points="798,-546.74 798,-582.74 848,-582.74 848,-546.74 798,-546.74"/>
<text text-anchor="start" x="801" y="-568.54" font-family="sans" font-size="14.00">36 PIN</text>
<text text-anchor="start" x="811" y="-553.54" font-family="sans" font-size="14.00">TTL</text>
<polygon fill="none" stroke="#dddddd" points="848,-546.74 848,-582.74 902,-582.74 902,-546.74 848,-546.74"/>
<text text-anchor="start" x="857" y="-568.54" font-family="sans" font-size="14.00">Optic</text>
<text text-anchor="start" x="851" y="-553.54" font-family="sans" font-size="14.00">Trigger</text>
<polygon fill="none" stroke="#dddddd" points="902,-546.74 902,-582.74 980,-582.74 980,-546.74 902,-546.74"/>
<text text-anchor="start" x="923" y="-568.54" font-family="sans" font-size="14.00">Optic</text>
<text text-anchor="start" x="905" y="-553.54" font-family="sans" font-size="14.00">Responses</text>
<polygon fill="none" stroke="#dddddd" points="980,-546.74 980,-582.74 1014,-582.74 1014,-546.74 980,-546.74"/>
<text text-anchor="start" x="983" y="-561.04" font-family="sans" font-size="14.00">USB</text>
<polygon fill="none" stroke="#dddddd" points="1014,-546.74 1014,-582.74 1046,-582.74 1046,-546.74 1014,-546.74"/>
<text text-anchor="start" x="1017" y="-561.04" font-family="sans" font-size="14.00">ETH</text>
</g>
<!-- dat&#45;&gt;rec -->
<g id="edge12" class="edge">
<title>dat:eth&#45;&gt;rec:eth</title>
<path fill="none" stroke="#5588ff" d="M962,-712.74C962,-677.72 912.41,-671.02 930,-640.74 953.79,-599.79 1019.24,-629.65 1028.82,-593.72"/>
<polygon fill="#5588ff" stroke="#5588ff" points="1032.3,-594.08 1030,-583.74 1025.35,-593.26 1032.3,-594.08"/>
<text text-anchor="middle" x="943.5" y="-644.54" font-family="sans" font-size="14.00" fill="#5588ff">NTP</text>
</g>
<!-- ale -->
<g id="node11" class="node">
<title>ale</title>
<polygon fill="#90b0ff" stroke="transparent" points="388,-1098.48 206,-1098.48 206,-1060.48 388,-1060.48 388,-1098.48"/>
<text text-anchor="middle" x="297" y="-1083.28" font-family="sans" font-size="14.00" fill="#f2f2f2">Metadata Entry and Alert</text>
<text text-anchor="middle" x="297" y="-1068.28" font-family="sans" font-size="14.00" fill="#f2f2f2">Desktop</text>
</g>
<!-- dat&#45;&gt;ale -->
<g id="edge24" class="edge">
<title>dat:eth&#45;&gt;ale</title>
<path fill="none" stroke="#5588ff" d="M962,-750.74C962,-840.21 975.6,-883.58 911,-945.48 838.56,-1014.88 553.17,-1053.22 398.29,-1069.3"/>
<polygon fill="#5588ff" stroke="#5588ff" points="397.87,-1065.82 388.28,-1070.33 398.59,-1072.79 397.87,-1065.82"/>
</g>
<!-- pac -->
<g id="node5" class="node">
<title>pac</title>
<polygon fill="#90b0ff" stroke="transparent" points="875,-936.61 771,-936.61 771,-900.61 875,-900.61 875,-936.61"/>
<text text-anchor="middle" x="823" y="-914.91" font-family="sans" font-size="14.00" fill="#f2f2f2"> PACS Server </text>
</g>
<!-- pac&#45;&gt;bid -->
<g id="edge19" class="edge">
<title>pac:e&#45;&gt;bid:w</title>
<path fill="none" stroke="#5588ff" d="M875,-918.61C968.39,-918.61 994.27,-918.61 1082.78,-918.61"/>
<polygon fill="#5588ff" stroke="#5588ff" points="1083,-922.11 1093,-918.61 1083,-915.11 1083,-922.11"/>
</g>
<!-- bid&#45;&gt;per -->
<g id="edge25" class="edge">
<title>bid&#45;&gt;per:eth</title>
<path fill="none" stroke="#5588ff" d="M1158.67,-899.29C1164.6,-832.56 1184.33,-595.98 1184.98,-396.79"/>
<polygon fill="#5588ff" stroke="#5588ff" points="1188.48,-396.75 1185,-386.74 1181.48,-396.73 1188.48,-396.75"/>
<text text-anchor="middle" x="1219.5" y="-644.54" font-family="sans" font-size="14.00" fill="#5588ff">BIDS Dataset</text>
</g>
<!-- mag2 -->
<g id="node7" class="node">
<title>mag2</title>
<polygon fill="white" stroke="#00ff00" points="698.5,-940.61 407.5,-940.61 407.5,-896.61 698.5,-896.61 698.5,-940.61"/>
<polygon fill="#f5f5f5" stroke="transparent" points="415.5,-900.61 415.5,-936.61 690.5,-936.61 690.5,-900.61 415.5,-900.61"/>
<polygon fill="none" stroke="white" points="416,-900.61 416,-936.61 594,-936.61 594,-900.61 416,-900.61"/>
<text text-anchor="start" x="419" y="-922.41" font-family="sans" font-size="14.00">Audio/Video Converter #2</text>
<text text-anchor="start" x="445.5" y="-907.41" font-family="sans" font-size="14.00">(for con/noisseur)</text>
<polygon fill="none" stroke="white" points="594,-900.61 594,-936.61 628,-936.61 628,-900.61 594,-900.61"/>
<text text-anchor="start" x="597" y="-914.91" font-family="sans" font-size="14.00">AUX</text>
<polygon fill="none" stroke="white" points="628,-900.61 628,-936.61 657,-936.61 657,-900.61 628,-900.61"/>
<text text-anchor="start" x="631" y="-914.91" font-family="sans" font-size="14.00">DVI</text>
<polygon fill="none" stroke="white" points="657,-900.61 657,-936.61 691,-936.61 691,-900.61 657,-900.61"/>
<text text-anchor="start" x="660" y="-914.91" font-family="sans" font-size="14.00">USB</text>
</g>
<!-- mag2&#45;&gt;dat -->
<g id="edge21" class="edge">
<title>mag2:usb&#45;&gt;dat:usb</title>
<path fill="none" stroke="#7f7f7f" d="M674,-899.61C674,-829.33 740.95,-824.91 747.49,-761.06"/>
<polygon fill="#7f7f7f" stroke="#7f7f7f" points="751,-760.9 748,-750.74 744.01,-760.55 751,-760.9"/>
</g>
<!-- rec&#45;&gt;eve -->
<g id="edge16" class="edge">
<title>rec:ttl&#45;&gt;eve</title>
<path fill="none" stroke="#7f7f7f" d="M823,-545.74C823,-511.15 791.67,-515.71 770,-488.74 745.42,-458.15 720.23,-420.8 703.72,-395.33"/>
<polygon fill="#7f7f7f" stroke="#7f7f7f" points="706.62,-393.37 698.26,-386.85 700.73,-397.16 706.62,-393.37"/>
<text text-anchor="middle" x="817" y="-477.54" font-family="sans" font-size="14.00">events</text>
<text text-anchor="middle" x="817" y="-462.54" font-family="sans" font-size="14.00">(trigger pulse,</text>
<text text-anchor="middle" x="817" y="-447.54" font-family="sans" font-size="14.00">responses)</text>
</g>
<!-- rec&#45;&gt;dat -->
<g id="edge13" class="edge">
<title>rec:eth&#45;&gt;dat:eth</title>
<path fill="none" stroke="#5588ff" d="M1030,-583.74C1030,-645.01 969.23,-647.8 962.59,-702.67"/>
<polygon fill="#5588ff" stroke="#5588ff" points="959.09,-702.55 962,-712.74 966.08,-702.96 959.09,-702.55"/>
<text text-anchor="middle" x="1024" y="-644.54" font-family="sans" font-size="14.00" fill="#5588ff">events</text>
</g>
<!-- rec&#45;&gt;per -->
<g id="edge11" class="edge">
<title>rec:usb&#45;&gt;per:usb</title>
<path fill="none" stroke="#7f7f7f" d="M997,-545.74C997,-511.28 1045.03,-437.73 1052.91,-396.86"/>
<polygon fill="#7f7f7f" stroke="#7f7f7f" points="1056.41,-397.06 1054,-386.74 1049.45,-396.31 1056.41,-397.06"/>
<text text-anchor="middle" x="1082" y="-477.54" font-family="sans" font-size="14.00">events</text>
<text text-anchor="middle" x="1082" y="-462.54" font-family="sans" font-size="14.00">(trigger pulse,</text>
<text text-anchor="middle" x="1082" y="-447.54" font-family="sans" font-size="14.00">responses)</text>
</g>
<!-- mrm -->
<g id="node9" class="node">
<title>mrm</title>
<polygon fill="#f5f5f5" stroke="#dddddd" points="272,-749.74 172,-749.74 172,-713.74 272,-713.74 272,-749.74"/>
<text text-anchor="middle" x="222" y="-728.04" font-family="sans" font-size="14.00" fill="#aaaaaa">MRI Monitor</text>
</g>
<!-- mri -->
<g id="node10" class="node">
<title>mri</title>
<polygon fill="#90b0ff" stroke="#dddddd" points="134,-1104.48 18,-1104.48 18,-1054.48 134,-1054.48 134,-1104.48"/>
<polygon fill="none" stroke="white" points="26,-1079.48 26,-1100.48 126,-1100.48 126,-1079.48 26,-1079.48"/>
<text text-anchor="start" x="36.5" y="-1086.28" font-family="sans" font-size="14.00">MRI System</text>
<polygon fill="none" stroke="white" points="26,-1058.48 26,-1079.48 65,-1079.48 65,-1058.48 26,-1058.48"/>
<text text-anchor="start" x="29" y="-1065.28" font-family="sans" font-size="14.00">optic</text>
<polygon fill="none" stroke="white" points="65,-1058.48 65,-1079.48 94,-1079.48 94,-1058.48 65,-1058.48"/>
<text text-anchor="start" x="68" y="-1065.28" font-family="sans" font-size="14.00">DVI</text>
<polygon fill="none" stroke="white" points="94,-1058.48 94,-1079.48 126,-1079.48 126,-1058.48 94,-1058.48"/>
<text text-anchor="start" x="97" y="-1065.28" font-family="sans" font-size="14.00">ETH</text>
</g>
<!-- mri&#45;&gt;pac -->
<g id="edge18" class="edge">
<title>mri:eth&#45;&gt;pac:w</title>
<path fill="none" stroke="#5588ff" d="M127,-1068.48C147.55,-1068.48 150.26,-1057.18 170,-1051.48 415.47,-980.63 501.72,-1049.68 735,-945.48 749.13,-939.17 750.54,-926.09 760.14,-920.85"/>
<polygon fill="#5588ff" stroke="#5588ff" points="761.02,-924.24 770,-918.61 759.47,-917.41 761.02,-924.24"/>
</g>
<!-- mri&#45;&gt;rec -->
<g id="edge14" class="edge">
<title>mri:optic&#45;&gt;rec:optictrig</title>
<path fill="none" stroke="#ffc1c3" d="M45,-1057.48C45,-895.14 16.12,-813.2 136,-703.74 256.22,-593.97 848.75,-743.43 874.16,-594.02"/>
<polygon fill="#ffc1c3" stroke="#ffc1c3" points="877.67,-593.99 875,-583.74 870.7,-593.42 877.67,-593.99"/>
<text text-anchor="middle" x="103" y="-819.04" font-family="sans" font-size="14.00" fill="#ffc1c3">trigger pulse</text>
</g>
<!-- dvisplit -->
<g id="node12" class="node">
<title>dvisplit</title>
<ellipse fill="none" stroke="#00ff00" stroke-dasharray="5,2" cx="218" cy="-918.61" rx="45.92" ry="26.74"/>
<text text-anchor="middle" x="218" y="-922.41" font-family="sans" font-size="14.00">DVI</text>
<text text-anchor="middle" x="218" y="-907.41" font-family="sans" font-size="14.00">Splitter</text>
</g>
<!-- mri&#45;&gt;dvisplit -->
<g id="edge1" class="edge">
<title>mri:dvi&#45;&gt;dvisplit</title>
<path fill="none" stroke="#228822" d="M80,-1057.48C80,-1042.69 144.29,-983.85 185.11,-947.99"/>
<polygon fill="#228822" stroke="#228822" points="187.47,-950.58 192.69,-941.37 182.86,-945.32 187.47,-950.58"/>
</g>
<!-- dvisplit&#45;&gt;mag2 -->
<g id="edge3" class="edge">
<title>dvisplit&#45;&gt;mag2:dvi</title>
<path fill="none" stroke="#228822" d="M260.43,-908.22C361.91,-883.8 616.46,-829.21 641.08,-889.41"/>
<polygon fill="#228822" stroke="#228822" points="637.71,-890.43 643,-899.61 644.59,-889.13 637.71,-890.43"/>
</g>
<!-- dvisplit&#45;&gt;mrm -->
<g id="edge2" class="edge">
<title>dvisplit&#45;&gt;mrm</title>
<path fill="none" stroke="#228822" d="M218.56,-891.51C219.32,-856.7 220.65,-795.34 221.41,-759.96"/>
<polygon fill="#228822" stroke="#228822" points="224.91,-759.95 221.63,-749.87 217.91,-759.8 224.91,-759.95"/>
</g>
<!-- vid -->
<g id="node13" class="node">
<title>vid</title>
<polygon fill="#f5f5f5" stroke="#dddddd" points="522.5,-54 341.5,-54 341.5,-18 522.5,-18 522.5,-54"/>
<text text-anchor="middle" x="432" y="-32.3" font-family="sans" font-size="14.00" fill="#aaaaaa"> &#160;&#160;&#160;&#160;&#160;&#160;&#160;&#160;&#160;Video Projector &#160;&#160;&#160;&#160;&#160;&#160;</text>
</g>
<!-- hea -->
<g id="node14" class="node">
<title>hea</title>
<polygon fill="#f5f5f5" stroke="#dddddd" points="777.5,-54 594.5,-54 594.5,-18 777.5,-18 777.5,-54"/>
<text text-anchor="middle" x="686" y="-32.3" font-family="sans" font-size="14.00" fill="#aaaaaa"> &#160;&#160;&#160;&#160;&#160;&#160;&#160;&#160;&#160;&#160;Headphones &#160;&#160;&#160;&#160;&#160;&#160;&#160;&#160;&#160;&#160;</text>
</g>
<!-- res -->
<g id="node15" class="node">
<title>res</title>
<polygon fill="white" stroke="transparent" points="1052.5,-54 849.5,-54 849.5,-18 1052.5,-18 1052.5,-54"/>
<polygon fill="#f5f5f5" stroke="transparent" points="857.5,-25.5 857.5,-46.5 1044.5,-46.5 1044.5,-25.5 857.5,-25.5"/>
<polygon fill="none" stroke="#dddddd" points="858,-25 858,-46 1006,-46 1006,-25 858,-25"/>
<text text-anchor="start" x="861" y="-31.8" font-family="sans" font-size="14.00"> &#160;&#160;&#160;Response Device &#160;&#160;&#160;</text>
<polygon fill="none" stroke="#dddddd" points="1006,-25 1006,-46 1045,-46 1045,-25 1006,-25"/>
<text text-anchor="start" x="1009" y="-31.8" font-family="sans" font-size="14.00">optic</text>
</g>
<!-- res&#45;&gt;rec -->
<g id="edge15" class="edge">
<title>res:optic&#45;&gt;rec:opticresp</title>
<path fill="none" stroke="#ffc1c3" d="M1025.96,-55.03C1024,-269.72 943.52,-322 941.06,-535.65"/>
<ellipse fill="#ffc1c3" stroke="#ffc1c3" cx="1025.98" cy="-51" rx="4" ry="4"/>
<polygon fill="#ffc1c3" stroke="#ffc1c3" points="937.56,-535.72 941,-545.74 944.56,-535.76 937.56,-535.72"/>
<text text-anchor="middle" x="1025" y="-274.54" font-family="sans" font-size="14.00" fill="#ffc1c3">responses</text>
</g>
<!-- vgasplit -->
<g id="node20" class="node">
<title>vgasplit</title>
<ellipse fill="none" stroke="#00ff00" stroke-dasharray="5,2" cx="432" cy="-189.87" rx="45.92" ry="26.74"/>
<text text-anchor="middle" x="432" y="-193.67" font-family="sans" font-size="14.00">VGA</text>
<text text-anchor="middle" x="432" y="-178.67" font-family="sans" font-size="14.00">Splitter</text>
</g>
<!-- per&#45;&gt;vgasplit -->
<g id="edge4" class="edge">
<title>per:vga&#45;&gt;vgasplit</title>
<path fill="none" stroke="#228822" d="M1036,-353.74C820.01,-353.74 575.08,-255.44 476.54,-211.58"/>
<polygon fill="#228822" stroke="#228822" points="477.74,-208.28 467.18,-207.38 474.87,-214.67 477.74,-208.28"/>
<text text-anchor="middle" x="701.5" y="-274.54" font-family="sans" font-size="14.00" fill="#228822">Video Stimuli</text>
</g>
<!-- auxsplit -->
<g id="node21" class="node">
<title>auxsplit</title>
<ellipse fill="none" stroke="#00ff00" stroke-dasharray="5,2" cx="686" cy="-189.87" rx="45.92" ry="26.74"/>
<text text-anchor="middle" x="686" y="-193.67" font-family="sans" font-size="14.00">Audio</text>
<text text-anchor="middle" x="686" y="-178.67" font-family="sans" font-size="14.00">Splitter</text>
</g>
<!-- per&#45;&gt;auxsplit -->
<g id="edge8" class="edge">
<title>per:aux&#45;&gt;auxsplit</title>
<path fill="none" stroke="#228822" d="M1185,-342.74C1185,-250.83 871.22,-209.19 741.3,-195.88"/>
<polygon fill="#228822" stroke="#228822" points="741.46,-192.38 731.16,-194.87 740.76,-199.35 741.46,-192.38"/>
<text text-anchor="middle" x="1177" y="-274.54" font-family="sans" font-size="14.00" fill="#228822">Audio Stimuli</text>
</g>
<!-- srm -->
<g id="node17" class="node">
<title>srm</title>
<polygon fill="#f5f5f5" stroke="#dddddd" points="269,-54 99,-54 99,-18 269,-18 269,-54"/>
<text text-anchor="middle" x="184" y="-32.3" font-family="sans" font-size="14.00" fill="#aaaaaa">Scanner Room Monitor</text>
</g>
<!-- reproadd -->
<g id="node18" class="node">
<title>reproadd</title>
<polygon fill="white" stroke="#00ff00" points="949.5,-1097.48 822.5,-1097.48 822.5,-1061.48 949.5,-1061.48 949.5,-1097.48"/>
<text text-anchor="middle" x="886" y="-1075.78" font-family="sans" font-size="14.00">ReproNim added</text>
</g>
<!-- server -->
<g id="node19" class="node">
<title>server</title>
<polygon fill="#90b0ff" stroke="white" points="750.5,-1097.48 631.5,-1097.48 631.5,-1061.48 750.5,-1061.48 750.5,-1097.48"/>
<text text-anchor="middle" x="691" y="-1075.78" font-family="sans" font-size="14.00">Server/Desktop</text>
</g>
<!-- vgasplit&#45;&gt;mag1 -->
<g id="edge7" class="edge">
<title>vgasplit&#45;&gt;mag1:dvi</title>
<path fill="none" stroke="#228822" d="M432,-216.9C432,-245.39 432,-292.72 432,-335.54"/>
<polygon fill="#228822" stroke="#228822" points="428.5,-335.74 432,-345.74 435.5,-335.74 428.5,-335.74"/>
</g>
<!-- vgasplit&#45;&gt;vid -->
<g id="edge6" class="edge">
<title>vgasplit&#45;&gt;vid</title>
<path fill="none" stroke="#228822" d="M432,-162.76C432,-135.36 432,-92.46 432,-64.53"/>
<polygon fill="#228822" stroke="#228822" points="435.5,-64.27 432,-54.27 428.5,-64.27 435.5,-64.27"/>
</g>
<!-- vgasplit&#45;&gt;srm -->
<g id="edge5" class="edge">
<title>vgasplit&#45;&gt;srm</title>
<path fill="none" stroke="#228822" d="M401.09,-169.94C355.25,-141.87 269.42,-89.31 220.53,-59.37"/>
<polygon fill="#228822" stroke="#228822" points="222.21,-56.29 211.85,-54.06 218.55,-62.26 222.21,-56.29"/>
</g>
<!-- auxsplit&#45;&gt;mag1 -->
<g id="edge10" class="edge">
<title>auxsplit&#45;&gt;mag1:aux</title>
<path fill="none" stroke="#228822" d="M679.28,-216.6C672.72,-237.44 660.92,-266.4 642,-285.74 616.25,-312.06 534.68,-357.17 490.98,-363.89"/>
<polygon fill="#228822" stroke="#228822" points="490.67,-360.41 481,-364.74 491.26,-367.38 490.67,-360.41"/>
</g>
<!-- auxsplit&#45;&gt;hea -->
<g id="edge9" class="edge">
<title>auxsplit&#45;&gt;hea</title>
<path fill="none" stroke="#228822" d="M686,-162.76C686,-135.36 686,-92.46 686,-64.53"/>
<polygon fill="#228822" stroke="#228822" points="689.5,-64.27 686,-54.27 682.5,-64.27 689.5,-64.27"/>
</g>
</g>
</svg>
